<svg width="33" height="32" viewBox="0 0 33 32" fill="none" xmlns="http://www.w3.org/2000/svg">
<circle opacity="0.1" cx="16.6667" cy="16" r="16" fill="white"/>
<path d="M16.6663 9.44146C18.8022 9.44146 19.0551 9.44945 19.8989 9.48793C20.4062 9.49414 20.9087 9.58729 21.3846 9.76334C21.7296 9.89642 22.043 10.1003 22.3045 10.3618C22.566 10.6233 22.7699 10.9367 22.903 11.2817C23.079 11.7576 23.1722 12.2601 23.1784 12.7674C23.2165 13.6112 23.2249 13.8641 23.2249 16C23.2249 18.1359 23.2169 18.3888 23.1784 19.2326C23.1722 19.7399 23.079 20.2424 22.903 20.7183C22.7699 21.0633 22.566 21.3767 22.3045 21.6382C22.043 21.8997 21.7296 22.1036 21.3846 22.2367C20.9087 22.4127 20.4062 22.5059 19.8989 22.5121C19.0555 22.5502 18.8026 22.5585 16.6663 22.5585C14.53 22.5585 14.2771 22.5505 13.4337 22.5121C12.9264 22.5059 12.4239 22.4127 11.9481 22.2367C11.603 22.1036 11.2896 21.8997 11.0281 21.6382C10.7666 21.3767 10.5627 21.0633 10.4297 20.7183C10.2536 20.2424 10.1604 19.7399 10.1542 19.2326C10.1161 18.3888 10.1078 18.1359 10.1078 16C10.1078 13.8641 10.1158 13.6112 10.1542 12.7674C10.1604 12.2601 10.2536 11.7576 10.4297 11.2817C10.5627 10.9367 10.7666 10.6233 11.0281 10.3618C11.2896 10.1003 11.603 9.89642 11.9481 9.76334C12.4239 9.58729 12.9264 9.49414 13.4337 9.48793C14.2775 9.44984 14.5304 9.44146 16.6663 9.44146ZM16.6663 8C14.495 8 14.2215 8.00914 13.3682 8.048C12.7042 8.0612 12.0473 8.18692 11.4254 8.41979C10.8919 8.6208 10.4087 8.93579 10.0095 9.34279C9.60211 9.74215 9.28685 10.2256 9.08571 10.7595C8.85284 11.3814 8.72713 12.0383 8.71392 12.7023C8.67583 13.5548 8.66669 13.8283 8.66669 15.9996C8.66669 18.1709 8.67583 18.4445 8.71468 19.2977C8.72789 19.9617 8.8536 20.6186 9.08648 21.2405C9.28738 21.7743 9.60238 22.2578 10.0095 22.6572C10.4089 23.0643 10.8924 23.3793 11.4262 23.5802C12.0481 23.8131 12.705 23.9388 13.3689 23.952C14.2222 23.9901 14.4946 24 16.6671 24C18.8395 24 19.1119 23.9909 19.9652 23.952C20.6291 23.9388 21.2861 23.8131 21.908 23.5802C22.4392 23.3743 22.9216 23.0598 23.3244 22.6568C23.7271 22.2537 24.0413 21.7711 24.2469 21.2398C24.4798 20.6178 24.6055 19.9609 24.6187 19.297C24.6568 18.4445 24.6659 18.1709 24.6659 15.9996C24.6659 13.8283 24.6568 13.5548 24.6179 12.7015C24.6047 12.0375 24.479 11.3806 24.2461 10.7587C24.0452 10.225 23.7302 9.74147 23.3231 9.34203C22.9237 8.93494 22.4402 8.61994 21.9064 8.41903C21.2845 8.18616 20.6276 8.06044 19.9637 8.04724C19.1111 8.00914 18.8376 8 16.6663 8Z" fill="white"/>
<path d="M16.6682 11.8931C15.8558 11.8931 15.0615 12.134 14.386 12.5854C13.7104 13.0368 13.1839 13.6784 12.8729 14.429C12.562 15.1796 12.4807 16.0056 12.6392 16.8025C12.7977 17.5994 13.1889 18.3313 13.7634 18.9059C14.338 19.4804 15.0699 19.8716 15.8668 20.0301C16.6637 20.1886 17.4897 20.1073 18.2403 19.7964C18.9909 19.4854 19.6325 18.9589 20.0839 18.2833C20.5353 17.6078 20.7762 16.8135 20.7762 16.0011C20.7762 14.9116 20.3434 13.8667 19.573 13.0963C18.8026 12.3259 17.7577 11.8931 16.6682 11.8931ZM16.6682 18.6676C16.1408 18.6676 15.6253 18.5112 15.1868 18.2182C14.7483 17.9252 14.4065 17.5087 14.2047 17.0215C14.0029 16.5343 13.95 15.9981 14.0529 15.4808C14.1558 14.9636 14.4098 14.4885 14.7827 14.1155C15.1556 13.7426 15.6308 13.4886 16.148 13.3858C16.6653 13.2829 17.2014 13.3357 17.6887 13.5375C18.1759 13.7393 18.5924 14.0811 18.8854 14.5196C19.1784 14.9581 19.3348 15.4737 19.3348 16.0011C19.3348 16.7083 19.0538 17.3865 18.5538 17.8866C18.0537 18.3867 17.3754 18.6676 16.6682 18.6676Z" fill="white"/>
<path d="M20.9372 12.6899C21.4674 12.6899 21.8972 12.2601 21.8972 11.73C21.8972 11.1998 21.4674 10.77 20.9372 10.77C20.4071 10.77 19.9773 11.1998 19.9773 11.73C19.9773 12.2601 20.4071 12.6899 20.9372 12.6899Z" fill="white"/>
</svg>
