<svg width="33" height="32" viewBox="0 0 33 32" fill="none" xmlns="http://www.w3.org/2000/svg">
<circle opacity="0.1" cx="16.6667" cy="16" r="16" fill="white"/>
<path d="M12.1529 23.9999H8.7243V12.5713H12.1529V23.9999ZM24.7244 23.9999H21.2958V17.8947C21.2958 16.3039 20.7289 15.5119 19.6055 15.5119C18.7152 15.5119 18.1506 15.9553 17.8672 16.8433V23.9999H14.4386C14.4386 23.9999 14.4843 13.7142 14.4386 12.5713H17.1449L17.3541 14.857H17.4249C18.1278 13.7142 19.2512 12.9393 20.7918 12.9393C21.9632 12.9393 22.9107 13.265 23.6341 14.0833C24.3621 14.9027 24.7244 16.0022 24.7244 17.5462V23.9999Z" fill="white"/>
<path d="M10.4381 11.4286C11.4165 11.4286 12.2096 10.6611 12.2096 9.7143C12.2096 8.76752 11.4165 8 10.4381 8C9.45979 8 8.66669 8.76752 8.66669 9.7143C8.66669 10.6611 9.45979 11.4286 10.4381 11.4286Z" fill="white"/>
</svg>
