<svg width="25" height="25" viewBox="0 0 25 25" fill="none" xmlns="http://www.w3.org/2000/svg">
<g clip-path="url(#clip0_318_653)">
<path d="M7.35068 6.60753C10.6616 4.30609 15.3936 4.4942 18.4548 7.05366C21.5695 9.65642 21.995 13.9105 19.4332 16.9561C17.0193 19.8252 12.6679 20.7708 9.04436 19.2908L8.84731 19.2068L5.13123 19.9817L5.06752 19.9925L4.97409 20L4.87811 19.9967L4.84073 19.9925L4.7473 19.9759L4.65812 19.9476L4.57318 19.9109L4.50862 19.876L4.41689 19.8119L4.34809 19.7503L4.28608 19.6812L4.24107 19.6188L4.18586 19.5231L4.15018 19.4348L4.12385 19.3408L4.11281 19.2784L4.10516 19.1868L4.10856 19.0927L4.11281 19.0561L4.1298 18.9646L4.14848 18.9046L5.12528 16.0322L5.10659 16.0022C3.22944 12.8834 4.07968 9.01717 7.15447 6.74819L7.34983 6.60836L7.35068 6.60753Z" fill="white"/>
</g>
<defs>
<clipPath id="clip0_318_653">
<rect width="24" height="24" fill="white" transform="translate(0.666687 0.5)"/>
</clipPath>
</defs>
</svg>
