<svg width="25" height="25" viewBox="0 0 25 25" fill="none" xmlns="http://www.w3.org/2000/svg">
<path d="M14.3282 5.18389C14.3513 5.09759 14.3911 5.01668 14.4455 4.94579C14.4999 4.87491 14.5677 4.81542 14.645 4.77074C14.7224 4.72607 14.8078 4.69707 14.8963 4.68541C14.9849 4.67375 15.0749 4.67965 15.1612 4.70278C16.4218 5.03169 17.572 5.6907 18.4932 6.61193C19.4144 7.53317 20.0734 8.68332 20.4023 9.94394C20.4255 10.0302 20.4314 10.1202 20.4197 10.2088C20.4081 10.2974 20.3791 10.3828 20.3344 10.4601C20.2897 10.5375 20.2302 10.6053 20.1593 10.6596C20.0884 10.714 20.0075 10.7539 19.9212 10.7769C19.8638 10.792 19.8047 10.7997 19.7453 10.7999C19.5955 10.7999 19.45 10.7506 19.3312 10.6594C19.2124 10.5683 19.127 10.4405 19.0882 10.2958C18.8201 9.2666 18.2823 8.32749 17.5303 7.57534C16.7783 6.82319 15.8393 6.28522 14.8101 6.0169C14.7238 5.99391 14.6428 5.95411 14.5718 5.89979C14.5008 5.84547 14.4412 5.77768 14.3965 5.70031C14.3517 5.62295 14.3226 5.53751 14.3109 5.4489C14.2992 5.36029 14.3051 5.27023 14.3282 5.18389ZM14.1301 8.73692C15.3023 9.04973 16.0554 9.80368 16.3682 10.9758C16.407 11.1205 16.4924 11.2483 16.6112 11.3394C16.73 11.4306 16.8755 11.4799 17.0253 11.4799C17.0847 11.4797 17.1438 11.472 17.2012 11.457C17.2875 11.4339 17.3684 11.394 17.4393 11.3396C17.5102 11.2853 17.5697 11.2175 17.6144 11.1401C17.659 11.0628 17.688 10.9774 17.6997 10.8888C17.7114 10.8002 17.7055 10.7102 17.6823 10.6239C17.2471 8.99533 16.1098 7.85801 14.4812 7.42281C14.3949 7.39976 14.3049 7.39393 14.2164 7.40566C14.1279 7.41738 14.0425 7.44643 13.9652 7.49114C13.8879 7.53586 13.8201 7.59536 13.7658 7.66626C13.7115 7.73715 13.6717 7.81805 13.6486 7.90434C13.6256 7.99063 13.6197 8.08061 13.6315 8.16915C13.6432 8.25769 13.6722 8.34305 13.7169 8.42036C13.7617 8.49767 13.8212 8.56542 13.8921 8.61974C13.963 8.67405 14.0439 8.71387 14.1301 8.73692ZM20.2867 15.429L16.2824 13.6347L16.2713 13.6296C16.0634 13.5407 15.8366 13.505 15.6115 13.5258C15.3864 13.5465 15.17 13.6231 14.9818 13.7486C14.9597 13.7632 14.9384 13.7791 14.9181 13.7962L12.8492 15.5599C11.5385 14.9233 10.1853 13.5803 9.54861 12.2866L11.3149 10.1862C11.3319 10.1649 11.3481 10.1437 11.3634 10.1207C11.4861 9.93314 11.5606 9.71811 11.5802 9.49477C11.5998 9.27143 11.5638 9.04672 11.4756 8.84062V8.83042L9.67611 4.81924C9.55944 4.55001 9.35882 4.32573 9.10422 4.17989C8.84961 4.03405 8.55466 3.97446 8.2634 4.01003C7.11162 4.16159 6.05439 4.72724 5.28917 5.60132C4.52396 6.47541 4.10309 7.59816 4.10517 8.75987C4.10517 15.5089 9.59621 21 16.3453 21C17.507 21.0021 18.6297 20.5812 19.5038 19.816C20.3779 19.0508 20.9435 17.9935 21.0951 16.8418C21.1307 16.5506 21.0713 16.2557 20.9256 16.0011C20.7799 15.7465 20.5558 15.5458 20.2867 15.429Z" fill="white"/>
</svg>
