<svg width="33" height="32" viewBox="0 0 33 32" fill="none" xmlns="http://www.w3.org/2000/svg">
<circle opacity="0.1" cx="16.6667" cy="16" r="16" fill="white"/>
<path d="M24.6667 11.5077C24.0667 11.7758 23.4334 11.9433 22.7667 12.0438C23.4334 11.6418 23.9667 11.0052 24.2 10.2345C23.5667 10.6031 22.8667 10.8711 22.1 11.0387C21.5 10.4021 20.6334 10 19.7 10C17.9 10 16.4334 11.4742 16.4334 13.2835C16.4334 13.5515 16.4667 13.7861 16.5334 14.0206C13.8334 13.8866 11.4 12.5799 9.76669 10.5696C9.50002 11.0722 9.33335 11.6082 9.33335 12.2113C9.33335 13.3505 9.90002 14.3557 10.8 14.9588C10.2667 14.9253 9.76669 14.7912 9.30002 14.5567V14.5902C9.30002 16.1985 10.4334 17.5387 11.9334 17.8402C11.6667 17.9072 11.3667 17.9407 11.0667 17.9407C10.8667 17.9407 10.6334 17.9072 10.4334 17.8737C10.8667 19.1804 12.0667 20.1521 13.5 20.1521C12.3667 21.0232 10.9667 21.5593 9.43335 21.5593C9.16669 21.5593 8.90002 21.5593 8.66669 21.5258C10.1334 22.4639 11.8334 23 13.7 23C19.7334 23 23.0334 17.9742 23.0334 13.6186C23.0334 13.4845 23.0334 13.317 23.0334 13.183C23.6667 12.7474 24.2334 12.1778 24.6667 11.5077Z" fill="white"/>
</svg>
