<svg width="33" height="32" viewBox="0 0 33 32" fill="none" xmlns="http://www.w3.org/2000/svg">
<circle opacity="0.1" cx="16.6667" cy="16" r="16" fill="white"/>
<path d="M25.291 11.8745C25.1886 11.5115 24.9877 11.1805 24.7084 10.9146C24.4292 10.6487 24.0814 10.4572 23.6999 10.3592C22.2957 10 16.6667 10 16.6667 10C16.6667 10 11.0377 10 9.63343 10.3573C9.25177 10.4549 8.90383 10.6463 8.62456 10.9123C8.34528 11.1783 8.14449 11.5095 8.04236 11.8726C7.66669 13.2102 7.66669 16 7.66669 16C7.66669 16 7.66669 18.7898 8.04236 20.1255C8.24928 20.8631 8.85999 21.4439 9.63343 21.6408C11.0377 22 16.6667 22 16.6667 22C16.6667 22 22.2957 22 23.6999 21.6408C24.4754 21.4439 25.0841 20.8631 25.291 20.1255C25.6667 18.7898 25.6667 16 25.6667 16C25.6667 16 25.6667 13.2102 25.291 11.8745ZM14.8787 18.5605V13.4395L19.5395 15.9809L14.8787 18.5605Z" fill="white"/>
</svg>
